<svg width="24" height="25" viewBox="0 0 24 25" fill="none" xmlns="http://www.w3.org/2000/svg">
<path d="M4.20386 18.5H15.2039C15.7539 18.5 16.2039 18.05 16.2039 17.5C16.2039 16.95 15.7539 16.5 15.2039 16.5H4.20386C3.65386 16.5 3.20386 16.95 3.20386 17.5C3.20386 18.05 3.65386 18.5 4.20386 18.5ZM4.20386 13.5H12.2039C12.7539 13.5 13.2039 13.05 13.2039 12.5C13.2039 11.95 12.7539 11.5 12.2039 11.5H4.20386C3.65386 11.5 3.20386 11.95 3.20386 12.5C3.20386 13.05 3.65386 13.5 4.20386 13.5ZM3.20386 7.5C3.20386 8.05 3.65386 8.5 4.20386 8.5H15.2039C15.7539 8.5 16.2039 8.05 16.2039 7.5C16.2039 6.95 15.7539 6.5 15.2039 6.5H4.20386C3.65386 6.5 3.20386 6.95 3.20386 7.5ZM20.5039 15.38L17.6239 12.5L20.5039 9.62C20.8939 9.23 20.8939 8.6 20.5039 8.21C20.1139 7.82 19.4839 7.82 19.0939 8.21L15.5039 11.8C15.1139 12.19 15.1139 12.82 15.5039 13.21L19.0939 16.8C19.4839 17.19 20.1139 17.19 20.5039 16.8C20.8839 16.41 20.8939 15.77 20.5039 15.38Z" fill="#B8BFCC" style="fill:#B8BFCC;fill:color(display-p3 0.7200 0.7507 0.8000);fill-opacity:1;"/>
</svg>
