<svg width="396" height="40" viewBox="0 0 396 40" fill="none" xmlns="http://www.w3.org/2000/svg">
<path d="M0 38.9672L19.2759 1.67213H23.3579L42.4638 38.9672H39.2322L24.4351 9.98361C23.7926 8.56284 23.3012 7.53278 22.961 6.89344C22.6587 6.25409 22.3941 5.77459 22.1673 5.45492C21.9783 5.13524 21.7894 4.78005 21.6004 4.38934C21.4114 3.96311 21.1468 3.27049 20.8067 2.31147H21.6004C21.1846 3.4836 20.8445 4.33606 20.5799 4.86885C20.3531 5.36612 20.1263 5.79235 19.8996 6.14754C19.6728 6.50273 19.4082 6.96448 19.1059 7.53279C18.8035 8.10109 18.3688 9.02459 17.8019 10.3033L3.00478 38.9672H0ZM7.59699 28.2049L8.84425 25.5943H33.8463L34.4699 28.2049H7.59699ZM60.6318 38.9672V11.2623H63.4665V38.9672H60.6318ZM62.0491 5.29508C61.2176 5.29508 60.5751 5.08196 60.1215 4.65573C59.668 4.2295 59.4412 3.64344 59.4412 2.89754C59.4412 2.18715 59.668 1.61885 60.1215 1.19262C60.5751 0.730875 61.2176 0.5 62.0491 0.5C62.8807 0.5 63.5232 0.713111 63.9767 1.13934C64.4303 1.56557 64.6571 2.15164 64.6571 2.89754C64.6571 3.60792 64.4303 4.19398 63.9767 4.65573C63.5232 5.08196 62.8807 5.29508 62.0491 5.29508ZM88.863 38.9672V11.2623H91.5843L91.8678 18.8279L90.9028 19.5738C91.5843 17.7623 92.5292 16.1817 93.7387 14.832C94.9859 13.4467 96.4411 12.3811 98.1041 11.6352C99.8049 10.8538 101.695 10.4631 103.774 10.4631C105.172 10.4631 106.514 10.6052 107.799 10.8893C109.084 11.138 110.18 11.4932 111.087 11.9549L110.18 14.832C109.273 14.2992 108.215 13.9262 107.005 13.7131C105.796 13.5 104.718 13.3934 103.774 13.3934C101.695 13.3934 99.8994 13.6954 98.3876 14.2992C96.9136 14.903 95.6663 15.7022 94.6458 16.6967C93.6253 17.6913 92.8694 18.8101 92.378 20.0533C91.9245 21.2964 91.6977 22.5574 91.6977 23.8361V38.9672H88.863ZM165.513 38.9672V4.33607H149.922V1.67213H184.336V4.33607H168.348V38.9672H165.513ZM210.443 39.5C206.55 39.5 203.111 38.8784 200.125 37.6353C197.177 36.3921 194.871 34.6872 193.208 32.5205C191.545 30.3183 190.714 27.7964 190.714 24.9549C190.714 22.1489 191.545 19.6626 193.208 17.4959C194.871 15.3292 197.177 13.6243 200.125 12.3811C203.111 11.1025 206.55 10.4631 210.443 10.4631C214.298 10.4631 217.7 11.1025 220.648 12.3811C223.596 13.6243 225.902 15.3292 227.565 17.4959C229.266 19.6626 230.116 22.1489 230.116 24.9549C230.116 27.7254 229.266 30.2295 227.565 32.4672C225.902 34.6694 223.596 36.3921 220.648 37.6353C217.7 38.8784 214.298 39.5 210.443 39.5ZM210.443 36.8361C213.58 36.8361 216.396 36.3388 218.891 35.3443C221.423 34.3142 223.426 32.9112 224.9 31.1352C226.374 29.3593 227.111 27.2992 227.111 24.9549C227.149 22.6817 226.431 20.6571 224.957 18.8811C223.521 17.0697 221.536 15.6667 219.004 14.6721C216.472 13.6421 213.618 13.1271 210.443 13.1271C207.193 13.1271 204.301 13.6243 201.769 14.6189C199.274 15.6134 197.309 17.0164 195.873 18.8279C194.474 20.6038 193.756 22.6462 193.718 24.9549C193.681 27.2992 194.399 29.3593 195.873 31.1352C197.347 32.8757 199.35 34.2609 201.882 35.291C204.415 36.321 207.268 36.8361 210.443 36.8361ZM254.974 38.9672V2.2582H257.809V38.9672H254.974ZM244.089 13.7131V11.2623H269.884V13.7131H244.089ZM303.716 39.5C299.861 39.5 296.441 38.8962 293.455 37.6885C290.507 36.4454 288.22 34.7404 286.595 32.5738C284.97 30.4071 284.157 27.903 284.157 25.0615C284.157 22.8593 284.648 20.8702 285.631 19.0943C286.652 17.3183 288.012 15.791 289.713 14.5123C291.452 13.1981 293.455 12.2036 295.723 11.5287C297.99 10.8183 300.39 10.4631 302.923 10.4631C305.493 10.4631 307.855 10.7828 310.009 11.4221C312.202 12.0615 314.073 12.985 315.622 14.1926C317.21 15.4003 318.419 16.821 319.251 18.4549C320.12 20.0888 320.517 21.918 320.441 23.9426L320.384 25.9139H286.652V23.4631H318.854L317.663 23.8893L317.606 22.6107C317.569 21.1189 316.964 19.6448 315.792 18.1885C314.621 16.7322 312.939 15.5246 310.746 14.5656C308.592 13.6066 305.965 13.1271 302.866 13.1271C300.183 13.1271 297.631 13.5355 295.212 14.3525C292.831 15.1694 290.885 16.4303 289.373 18.1352C287.899 19.8402 287.162 22.0956 287.162 24.9016C287.162 27.2814 287.842 29.3593 289.203 31.1352C290.601 32.9112 292.586 34.2965 295.156 35.291C297.764 36.25 300.844 36.7295 304.397 36.7295C307.269 36.7295 309.745 36.4454 311.824 35.8771C313.94 35.2732 315.981 34.403 317.947 33.2664L319.024 35.5041C317.777 36.2145 316.416 36.8894 314.942 37.5287C313.468 38.1325 311.824 38.612 310.009 38.9672C308.195 39.3224 306.098 39.5 303.716 39.5ZM339.533 38.9672V11.2623H342.254L342.481 19.7336L341.404 19.2008C341.857 18.0642 342.538 16.9631 343.445 15.8975C344.352 14.832 345.448 13.8907 346.733 13.0738C348.018 12.2568 349.492 11.6175 351.155 11.1557C352.818 10.694 354.632 10.4631 356.598 10.4631C358.676 10.4631 360.547 10.7828 362.21 11.4221C363.873 12.026 365.291 13.056 366.462 14.5123C367.672 15.9686 368.598 17.9577 369.24 20.4795L367.937 19.4672L367.823 18.9344C368.277 18.0109 368.957 17.0697 369.864 16.1107C370.771 15.1161 371.867 14.1926 373.152 13.3402C374.437 12.4877 375.911 11.7951 377.574 11.2623C379.238 10.7295 381.071 10.4631 383.074 10.4631C385.946 10.4631 388.346 11.0137 390.274 12.1148C392.202 13.2158 393.638 14.7076 394.583 16.5902C395.528 18.4372 396 20.4795 396 22.7172V38.9672H393.165V23.25C393.165 21.2254 392.75 19.4495 391.918 17.9221C391.087 16.3948 389.896 15.2049 388.346 14.3525C386.797 13.4645 384.982 13.0205 382.904 13.0205C380.976 13.0205 379.181 13.3402 377.518 13.9795C375.855 14.6189 374.4 15.4713 373.152 16.5369C371.905 17.5669 370.922 18.7391 370.204 20.0533C369.524 21.332 369.184 22.6462 369.184 23.9959V38.9672H366.349V23.25C366.349 21.1899 365.914 19.3962 365.045 17.8688C364.176 16.3415 362.929 15.1516 361.303 14.2992C359.678 13.4467 357.751 13.0205 355.521 13.0205C353.631 13.0205 351.873 13.3579 350.248 14.0328C348.623 14.6721 347.224 15.5424 346.053 16.6434C344.919 17.709 344.012 18.8811 343.331 20.1598C342.689 21.403 342.368 22.6462 342.368 23.8893V38.9672H339.533Z" fill="#1B435D" style="fill:#1B435D;fill:color(display-p3 0.1059 0.2627 0.3647);fill-opacity:1;"/>
</svg>
